HIERARCHY
ROOT Hips
{
	OFFSET 0.000000 0.000000 0.000000
	CHANNELS 6 Xposition Yposition Zposition Xrotation Yrotation Zrotation
	JOINT LeftUpLeg_virtual
	{
		OFFSET 0.000000 0.000000 0.000000
		CHANNELS 3 Xrotation Yrotation Zrotation
		JOINT LeftUpLeg
		{
			OFFSET 11.394100 -6.187798 -0.413800
			CHANNELS 3 Xrotation Yrotation Zrotation
			JOINT LeftLeg
			{
				OFFSET 0.430247 -32.302673 3.732800
				CHANNELS 3 Xrotation Yrotation Zrotation
				JOINT LeftFoot
				{
					OFFSET -0.430247 -48.264931 -6.423300
					CHANNELS 3 Xrotation Yrotation Zrotation
					JOINT LeftToeBase
					{
						OFFSET 4.230900 -16.068199 23.438400
						CHANNELS 3 Xrotation Yrotation Zrotation
						JOINT LeftToe_End
						{
							OFFSET 4.510700 0.695400 19.974600
							CHANNELS 3 Xrotation Yrotation Zrotation
							End Site
							{
								OFFSET 0 0 0
							}
						}
					}
				}
			}
		}
	}
	JOINT RightUpLeg_virtual
	{
		OFFSET 0.000000 0.000000 0.000000
		CHANNELS 3 Xrotation Yrotation Zrotation
		JOINT RightUpLeg
		{
			OFFSET -11.333700 -6.187798 -0.413800
			CHANNELS 3 Xrotation Yrotation Zrotation
			JOINT RightLeg
			{
				OFFSET -0.430392 -32.302628 3.733000
				CHANNELS 3 Xrotation Yrotation Zrotation
				JOINT RightFoot
				{
					OFFSET 0.430392 -48.264973 -6.423500
					CHANNELS 3 Xrotation Yrotation Zrotation
					JOINT RightToeBase
					{
						OFFSET -4.230900 -16.068199 23.438400
						CHANNELS 3 Xrotation Yrotation Zrotation
						JOINT RightToe_End
						{
							OFFSET -4.510700 0.695400 19.974600
							CHANNELS 3 Xrotation Yrotation Zrotation
							End Site
							{
								OFFSET 0 0 0
							}
						}
					}
				}
			}
		}
	}
	JOINT Spine_virtual
	{
		OFFSET 0.000000 0.000000 0.000000
		CHANNELS 3 Xrotation Yrotation Zrotation
		JOINT Spine
		{
			OFFSET -0.002400 12.777504 0.315300
			CHANNELS 3 Xrotation Yrotation Zrotation
			JOINT Spine1
			{
				OFFSET -0.002067 5.816869 0.032633
				CHANNELS 3 Xrotation Yrotation Zrotation
				JOINT Spine1_split
				{
					OFFSET -0.002067 5.816869 0.032633
					CHANNELS 3 Xrotation Yrotation Zrotation
					JOINT Spine2
					{
						OFFSET -0.002067 5.816869 0.032633
						CHANNELS 3 Xrotation Yrotation Zrotation
						JOINT Neck_virtual
						{
							OFFSET 0.000000 0.000000 0.000000
							CHANNELS 3 Xrotation Yrotation Zrotation
							JOINT Neck
							{
								OFFSET -0.003700 21.199493 -0.826900
								CHANNELS 3 Xrotation Yrotation Zrotation
								JOINT Head
								{
									OFFSET 0.000000 20.442200 4.834800
									CHANNELS 3 Xrotation Yrotation Zrotation
									JOINT HeadTop_End
									{
										OFFSET 0.000000 34.668396 4.968400
										CHANNELS 3 Xrotation Yrotation Zrotation
										End Site
										{
											OFFSET 0 0 0
										}
									}
								}
							}
						}
						JOINT LeftShoulder_virtual
						{
							OFFSET 0.000000 0.000000 0.000000
							CHANNELS 3 Xrotation Yrotation Zrotation
							JOINT LeftShoulder
							{
								OFFSET 3.288150 8.794197 -1.372250
								CHANNELS 3 Xrotation Yrotation Zrotation
								JOINT LeftShoulder_split
								{
									OFFSET 3.288150 8.794197 -1.372250
									CHANNELS 3 Xrotation Yrotation Zrotation
									JOINT LeftArm
									{
										OFFSET 11.953299 -2.279007 -0.146200
										CHANNELS 3 Xrotation Yrotation Zrotation
										JOINT LeftForeArm
										{
											OFFSET 18.448900 0.000000 0.000000
											CHANNELS 3 Xrotation Yrotation Zrotation
											JOINT LeftHand
											{
												OFFSET 29.527798 0.000000 0.000000
												CHANNELS 3 Xrotation Yrotation Zrotation
												End Site
												{
													OFFSET 0 0 0
												}
											}
										}
									}
								}
							}
						}
						JOINT RightShoulder_virtual
						{
							OFFSET 0.000000 0.000000 0.000000
							CHANNELS 3 Xrotation Yrotation Zrotation
							JOINT RightShoulder
							{
								OFFSET -3.249400 8.794197 -1.372250
								CHANNELS 3 Xrotation Yrotation Zrotation
								JOINT RightShoulder_split
								{
									OFFSET -3.249400 8.794197 -1.372250
									CHANNELS 3 Xrotation Yrotation Zrotation
									JOINT RightArm
									{
										OFFSET -11.953299 -2.279007 -0.146200
										CHANNELS 3 Xrotation Yrotation Zrotation
										JOINT RightForeArm
										{
											OFFSET -18.448900 0.000000 0.000000
											CHANNELS 3 Xrotation Yrotation Zrotation
											JOINT RightHand
											{
												OFFSET -29.527802 0.000000 0.000000
												CHANNELS 3 Xrotation Yrotation Zrotation
												End Site
												{
													OFFSET 0 0 0
												}
											}
										}
									}
								}
							}
						}
					}
				}
			}
		}
	}
}
MOTION
Frames: 6
Frame Time: 0.03333333
-2.105237 99.587196 15.314573 0.000000 0.000000 0.000000 175.633711 -62.119143 176.908443 -5.456624 15.809366 15.593124 21.165086 19.445096 1.920572 -7.190761 5.974583 -23.916227 -6.873486 2.430882 -1.550341 0.000000 0.000000 0.000000 174.738423 -61.464722 175.661988 -27.059975 -16.939190 -15.448846 15.661060 -13.349106 -1.197966 12.215448 -0.798675 7.237064 -2.235220 -15.799109 8.474481 0.000000 0.000000 0.000000 174.879071 -65.202775 175.191197 9.785680 -0.829646 0.263427 -0.120287 -1.344414 2.175074 0.812973 -0.803926 -0.001990 0.000000 0.000000 0.000000 -2.347094 -1.239415 2.540544 -4.041542 21.894769 4.561091 2.456368 23.472299 -7.939982 0.000000 0.000000 0.000000 -2.112548 -0.785970 2.189383 0.982513 1.630964 -8.208425 1.857813 -3.006597 -1.767121 -0.761605 -7.534103 -58.519196 5.029731 -16.610873 -6.051904 0.000000 0.000000 0.000000 -1.747291 -1.144039 1.790277 1.808592 -2.000140 18.918478 -2.936312 -1.451490 -0.475961 16.959001 27.482297 45.143797 16.352084 26.554918 -5.998980 0.000000 0.000000 0.000000 
-2.104276 98.925972 13.003441 0.000000 0.000000 0.000000 176.243975 -58.682144 177.723435 -2.856881 16.966176 16.906067 22.397882 21.633540 1.418335 -6.922182 6.907057 -25.453166 -7.559800 2.659085 -1.495239 0.000000 0.000000 0.000000 175.475264 -57.965213 176.606193 -28.598885 -17.517699 -14.415256 16.661613 -12.486561 -1.182757 12.894112 0.602490 6.683806 -3.295352 -15.802177 7.986106 0.000000 0.000000 0.000000 175.988758 -61.245084 176.592560 9.978869 -1.347302 -0.001025 -0.066366 -1.705676 2.721815 0.880557 -0.527493 -0.091951 0.000000 0.000000 0.000000 -2.368128 -1.602899 3.022592 -4.250022 19.253827 3.411213 1.770665 19.496370 -6.117294 0.000000 0.000000 0.000000 -2.013060 -1.125298 2.715105 1.013290 2.169602 -9.031937 1.538730 -3.001428 -1.626214 0.513684 -8.215917 -58.842223 4.317709 -16.635467 -5.978030 0.000000 0.000000 0.000000 -1.605716 -1.457422 2.287716 1.798683 -2.375903 18.277684 -2.883650 -1.281546 -0.448301 16.152766 28.444193 45.426301 16.074015 26.402182 -6.241473 0.000000 0.000000 0.000000 
-2.047803 98.049660 10.569424 0.000000 0.000000 0.000000 176.821358 -55.190729 178.379570 -1.334690 17.475994 18.688284 25.601035 22.888761 0.631547 -5.628452 6.915362 -26.492366 -6.982255 3.150477 -2.763357 0.000000 0.000000 0.000000 176.275120 -54.519478 177.448041 -29.526399 -18.239615 -12.863645 18.014861 -11.367848 -1.311738 12.338026 1.680771 5.608798 -4.300397 -15.668114 7.196849 0.000000 0.000000 0.000000 177.011838 -57.272345 177.705280 10.346051 -1.915865 -0.222846 -0.068072 -2.048152 3.150343 0.907039 -0.166793 -0.263745 0.000000 0.000000 0.000000 -2.408277 -1.966396 3.379951 -4.319998 16.273170 2.544248 1.237659 15.335778 -4.461325 0.000000 0.000000 0.000000 -1.977384 -1.467197 3.127273 1.046087 2.579530 -9.638386 1.348383 -3.072725 -1.340927 2.036085 -8.841432 -59.305897 3.697032 -16.986206 -6.005592 0.000000 0.000000 0.000000 -1.545095 -1.773546 2.699466 1.815560 -2.624331 17.835031 -3.019099 -1.031894 -0.427506 15.445407 29.404579 45.658906 15.685912 26.274940 -6.204234 0.000000 0.000000 0.000000 
-1.956226 97.072266 8.005257 0.000000 0.000000 0.000000 177.368921 -51.752862 178.888282 -1.263030 16.886075 20.859399 30.469621 22.840402 -0.169192 -2.926727 5.785379 -27.174768 -5.182644 3.856371 -5.638497 0.000000 0.000000 0.000000 177.163223 -51.187077 178.233650 -29.755203 -19.038732 -10.939092 19.630044 -10.216237 -1.608264 10.562421 2.249294 3.866348 -4.817625 -15.417836 6.175553 0.000000 0.000000 0.000000 177.923546 -53.366741 178.523250 10.829405 -2.434591 -0.346345 -0.179315 -2.311299 3.336602 0.934786 0.341759 -0.291689 0.000000 0.000000 0.000000 -2.459879 -2.252021 3.489168 -4.173526 13.084622 2.072219 0.873312 11.188864 -3.085872 0.000000 0.000000 0.000000 -2.037656 -1.739643 3.307027 1.061273 2.852059 -9.922300 1.198553 -3.090587 -1.030025 3.565344 -9.112409 -59.858398 3.166817 -17.594776 -6.168060 0.000000 0.000000 0.000000 -1.588503 -2.036930 2.892835 1.835436 -2.741903 17.623565 -3.159347 -0.807956 -0.396928 14.843644 30.173235 45.832137 15.286472 26.230360 -5.977131 0.000000 0.000000 0.000000 
-1.849452 96.149696 5.363258 0.000000 0.000000 0.000000 178.022938 -48.402767 179.367297 -2.360909 15.049108 22.871237 35.988151 21.867064 -0.670338 1.177069 3.742613 -27.081668 -3.381653 4.620544 -9.690826 0.000000 0.000000 0.000000 178.047336 -47.803545 178.864186 -29.546746 -19.656890 -8.850604 21.527949 -8.940172 -2.033752 8.167356 2.510102 1.941548 -5.142489 -15.100563 4.811152 0.000000 0.000000 0.000000 178.710875 -49.571665 178.990394 11.350696 -2.815190 -0.316223 -0.411555 -2.473233 3.229748 0.888356 0.700745 -0.225451 0.000000 0.000000 0.000000 -2.528119 -2.408261 3.325198 -3.777349 9.863775 2.031327 0.651130 7.276971 -2.067779 0.000000 0.000000 0.000000 -2.160656 -1.893375 3.209190 1.066346 2.999345 -9.889430 1.011438 -2.969785 -0.777895 4.864788 -8.812575 -60.509759 2.759879 -18.274260 -6.485130 0.000000 0.000000 0.000000 -1.722538 -2.194897 2.811570 1.822160 -2.786717 17.598151 -3.171785 -0.631451 -0.426810 14.320181 30.694611 45.908792 14.957986 26.335507 -5.698198 0.000000 0.000000 0.000000 
-1.829885 95.450287 2.666019 0.000000 0.000000 0.000000 178.730655 -45.049158 179.691130 -3.845618 12.575663 24.047660 40.880424 20.768490 -0.769113 5.281839 1.632697 -25.175727 -2.874284 5.360457 -14.020887 0.000000 0.000000 0.000000 178.855224 -44.400946 179.217539 -29.098290 -19.880328 -6.736332 23.522108 -7.453940 -2.544882 5.946022 2.697224 0.440465 -5.684810 -14.768577 3.131690 0.000000 0.000000 0.000000 179.378745 -45.850893 179.210176 11.850200 -2.953899 -0.108754 -0.707100 -2.499503 2.867256 0.811058 0.852068 -0.160185 0.000000 0.000000 0.000000 -2.619431 -2.402413 2.919415 -3.111787 6.716272 2.353382 0.556451 3.704765 -1.457916 0.000000 0.000000 0.000000 -2.308871 -1.890521 2.855711 1.062550 3.011634 -9.648604 0.859239 -2.718068 -0.600629 5.951597 -7.864101 -61.237837 2.538732 -18.675291 -6.920990 0.000000 0.000000 0.000000 -1.902457 -2.204336 2.480225 1.775473 -2.848372 17.686415 -3.013568 -0.545587 -0.550994 13.886661 31.153715 45.749147 14.740161 26.474833 -5.437870 0.000000 0.000000 0.000000 
